#!OML:ASF H:\MichaelJackson\Top Level 1\Subject 1\Session 1\male.ASF
:FULLY-SPECIFIED
:DEGREES
374
root 6.19888 16.5 -15.9003 9.4558 -17.1551 -6.19288
lowerback 5.31354 1.59546 3.49507
upperback 2.62996 2.27944 1.04054
thorax -0.175812 1.1578 -1.00919
lowerneck -7.9073 -1.24585 2.94488
upperneck -0.635139 -1.97453 2.08936
head 1.11518 -0.952631 0.0900791
rclavicle 3.926e-015 1.86858e-014
rhumerus -37.4303 12.8393 -93.4783
rradius 60.8504
rwrist 9.71786
rhand -8.8763 -19.0588
rfingers 7.12502
rthumb 17.0655 -768.329
lclavicle 3.926e-015 1.86858e-014
lhumerus -40.1157 -23.2501 94.8589
lradius 56.2879
lwrist 18.8398
lhand -21.6656 2.59239
lfingers 7.12502
lthumb 4.73164 32.5196
rfemur -24.7223 -3.45926 31.3167
rtibia 41.9111
rfoot -21.5155 0.682025
rtoes 17.9282
lfemur -46.2761 23.0672 -13.5223
ltibia 68.7097
lfoot -10.7254 -1.98956
ltoes 13.5224
375
root 6.15199 16.5071 -15.766 9.52824 -17.9555 -6.34567
lowerback 5.28641 1.78073 3.59832
upperback 2.59657 2.52951 0.979941
thorax -0.17678 1.28344 -1.14082
lowerneck -7.81997 -1.15941 3.09448
upperneck -0.524184 -1.87056 2.01631
head 1.13391 -0.90045 0.0459868
rclavicle -2.28602e-015 0
rhumerus -37.5524 13.1367 -93.5797
rradius 60.1793
rwrist 10.0238
rhand -9.12801 -18.7452
rfingers 7.12502
rthumb 16.8232 -768.036
lclavicle -2.28602e-015 0
lhumerus -39.9416 -23.2189 94.5087
lradius 55.8802
lwrist 18.282
lhand -21.9529 2.30116
lfingers 7.12502
lthumb 4.45424 32.2343
rfemur -23.8511 -2.77204 31.3528
rtibia 41.4743
rfoot -21.7708 0.689972
rtoes 18.0634
lfemur -46.784 22.7648 -13.9173
ltibia 65.8075
lfoot -10.2068 -1.35054
ltoes 13.3356
376
root 6.10396 16.5159 -15.6288 9.57291 -18.7395 -6.4811
lowerback 5.23884 1.96331 3.67931
upperback 2.56442 2.77402 0.914903
thorax -0.164791 1.40638 -1.26315
lowerneck -7.7206 -1.08108 3.24186
upperneck -0.420205 -1.77656 1.96106
head 1.14873 -0.853038 0.0075351
rclavicle 6.08281e-014 -1.59028e-015
rhumerus -37.6881 13.4244 -93.6899
rradius 59.5471
rwrist 10.2089
rhand -9.52035 -18.5302
rfingers 7.12502
rthumb 16.4455 -767.853
lclavicle 6.08281e-014 -1.59028e-015
lhumerus -39.8161 -23.1346 94.1771
lradius 55.5272
lwrist 17.8471
lhand -22.1705 2.07858
lfingers 7.12502
lthumb 4.24418 32.016
rfemur -22.9249 -2.10578 31.3711
rtibia 40.9905
rfoot -21.9992 0.681675
rtoes 18.1466
lfemur -47.0233 22.3552 -14.1758
ltibia 62.6686
lfoot -9.6354 -0.586633
ltoes 13.2006
377
root 6.05512 16.5255 -15.4889 9.58891 -19.495 -6.60288
lowerback 5.17315 2.13756 3.75139
upperback 2.53402 3.00618 0.845968
thorax -0.140538 1.52338 -1.38262
lowerneck -7.611 -1.01022 3.38912
upperneck -0.323746 -1.6918 1.9182
head 1.15963 -0.810144 -0.0272881
rclavicle 1.21756e-014 9.34288e-015
rhumerus -37.8376 13.7089 -93.8111
rradius 58.9583
rwrist 10.291
rhand -10.0189 -18.4192
rfingers 7.12502
rthumb 15.9654 -767.781
lclavicle 1.21756e-014 9.34288e-015
lhumerus -39.7432 -23.0066 93.8664
lradius 55.2334
lwrist 17.5512
lhand -22.2998 1.94839
lfingers 7.12502
lthumb 4.11931 31.8883
rfemur -21.9549 -1.48447 31.3791
rtibia 40.4786
rfoot -22.2099 0.662063
rtoes 18.1736
lfemur -47.0002 21.8013 -14.278
ltibia 59.3536
lfoot -9.06039 0.349577
ltoes 13.1426
378
root 6.0058 16.5348 -15.3461 9.57781 -20.2103 -6.71641
lowerback 5.091 2.29845 3.82746
upperback 2.50457 3.22 0.774993
thorax -0.105602 1.63152 -1.5042
lowerneck -7.49278 -0.945913 3.53747
upperneck -0.232425 -1.61516 1.88204
head 1.16757 -0.771249 -0.0604335
rclavicle -2.52457e-014 -1.8487e-014
rhumerus -38.0037 13.994 -93.943
rradius 58.4182
rwrist 10.298
rhand -10.5815 -18.4115
rfingers 7.12502
rthumb 15.4236 -767.816
lclavicle -2.52457e-014 -1.8487e-014
lhumerus -39.7242 -22.8452 93.5792
lradius 54.9944
lwrist 17.3891
lhand -22.3162 1.92478
lfingers 7.12502
lthumb 4.10342 31.865
rfemur -20.9531 -0.93092 31.385
rtibia 39.9583
rfoot -22.4131 0.638624
rtoes 18.1536
lfemur -46.7307 21.0654 -14.2043
ltibia 55.9337
lfoot -8.53142 1.49255
ltoes 13.1919
379
root 5.95621 16.5429 -15.2007 9.54319 -20.8765 -6.8271
lowerback 4.99316 2.4425 3.91702
upperback 2.47433 3.41131 0.704442
thorax -0.0620885 1.72875 -1.63046
lowerneck -7.36796 -0.887037 3.6871
upperneck -0.141185 -1.54524 1.84803
head 1.17445 -0.735625 -0.0933401
rclavicle 7.55382e-015 -4.37326e-015
rhumerus -38.1913 14.2795 -94.0831
rradius 57.9319
rwrist 10.2654
rhand -11.1636 -18.4989
rfingers 7.12502
rthumb 14.8629 -767.946
lclavicle 7.55382e-015 -4.37326e-015
lhumerus -39.7586 -22.6619 93.3187
lradius 54.8011
lwrist 17.3402
lhand -22.1962 2.01352
lfingers 7.12502
lthumb 4.21936 31.9515
rfemur -19.9317 -0.463717 31.3962
rtibia 39.4485
rfoot -22.618 0.618733
rtoes 18.1011
lfemur -46.2414 20.1137 -13.9394
ltibia 52.4892
lfoot -8.08989 2.85728
ltoes 13.3749
380
root 5.90644 16.5489 -15.0527 9.49018 -21.4878 -6.94072
lowerback 4.88029 2.56762 4.0256
upperback 2.44054 3.57765 0.637552
thorax -0.0132895 1.81378 -1.76118
lowerneck -7.23806 -0.832467 3.83722
upperneck -0.0436331 -1.4806 1.81341
head 1.18257 -0.702463 -0.126739
rclavicle 6.47044e-014 1.19271e-014
rhumerus -38.4075 14.5619 -94.2271
rradius 57.5047
rwrist 10.2299
rhand -11.7217 -18.6639
rfingers 7.12502
rthumb 14.3252 -768.15
lclavicle 6.47044e-014 1.19271e-014
lhumerus -39.8447 -22.4679 93.0887
lradius 54.6401
lwrist 17.3765
lhand -21.9214 2.21077
lfingers 7.12502
lthumb 4.48468 32.1433
rfemur -18.9027 -0.0963037 31.4195
rtibia 38.9664
rfoot -22.8314 0.606194
rtoes 18.0335
lfemur -45.5697 18.9222 -13.4751
ltibia 49.1082
lfoot -7.76235 4.43158
ltoes 13.6979
381
root 5.85645 16.552 -14.9024 9.42418 -22.042 -7.06064
lowerback 4.75237 2.67349 4.15161
upperback 2.40057 3.71851 0.577634
thorax 0.0376465 1.88623 -1.8922
lowerneck -7.10483 -0.781135 3.98596
upperneck 0.0666647 -1.41991 1.77781
head 1.1943 -0.670939 -0.160436
rclavicle 9.83984e-015 1.70955e-014
rhumerus -38.6595 14.8342 -94.3685
rradius 57.1422
rwrist 10.2221
rhand -12.2211 -18.8784
rfingers 7.12502
rthumb 13.8439 -768.398
lclavicle 9.83984e-015 1.70955e-014
lhumerus -39.9792 -22.2733 92.8942
lradius 54.4986
lwrist 17.4706
lhand -21.4847 2.50126
lfingers 7.12502
lthumb 4.90633 32.4245
rfemur -17.8774 0.163908 31.459
rtibia 38.5279
rfoot -23.0565 0.600844
rtoes 17.9719
lfemur -44.764 17.4835 -12.8168
ltibia 45.883
lfoot -7.55452 6.16995
ltoes 14.1331
382
root 5.80607 16.5519 -14.7501 9.3496 -22.5411 -7.1874
lowerback 4.60959 2.76129 4.28697
upperback 2.35228 3.83512 0.527477
thorax 0.0875744 1.94652 -2.01642
lowerneck -6.96985 -0.732156 4.13084
upperneck 0.194987 -1.36205 1.74306
head 1.21163 -0.640325 -0.193461
rclavicle 2.46493e-014 2.54444e-014
rhumerus -38.9539 15.0871 -94.4998
rradius 56.8504
rwrist 10.2605
rhand -12.6402 -19.1075
rfingers 7.12502
rthumb 13.44 -768.654
lclavicle 2.46493e-014 2.54444e-014
lhumerus -40.1577 -22.0875 92.7405
lradius 54.3658
lwrist 17.6015
lhand -20.8939 2.86143
lfingers 7.12502
lthumb 5.47676 32.7707
rfemur -16.867 0.314297 31.5159
rtibia 38.1483
rfoot -23.2925 0.595002
rtoes 17.9103
lfemur -43.8795 15.8132 -11.9864
ltibia 42.9055
lfoot -7.44706 7.99082
ltoes 14.6084
383
root 5.75507 16.5483 -14.5964 9.26905 -22.9907 -7.31871
lowerback 4.45317 2.83358 4.41906
upperback 2.29458 3.93039 0.488786
thorax 0.133623 1.99588 -2.12541
lowerneck -6.83464 -0.685024 4.26957
upperneck 0.344068 -1.30643 1.71275
head 1.23572 -0.610179 -0.224323
rclavicle -1.09431e-013 7.15625e-015
rhumerus -39.2945 15.3088 -94.6134
rradius 56.635
rwrist 10.3486
rhand -12.9683 -19.3151
rfingers 7.12502
rthumb 13.1237 -768.882
lclavicle -1.09431e-013 7.15625e-015
lhumerus -40.3751 -21.9187 92.633
lradius 54.2345
lwrist 17.7567
lhand -20.171 3.2614
lfingers 7.12502
lthumb 6.17472 33.1514
rfemur -15.8839 0.355095 31.5887
rtibia 37.8444
rfoot -23.5331 0.576458
rtoes 17.818
lfemur -42.9735 13.9543 -11.0232
ltibia 40.2604
lfoot -7.40089 9.78052
ltoes 15.0203
384
root 5.70321 16.5418 -14.4418 9.1821 -23.4003 -7.44801
lowerback 4.2861 2.8943 4.53121
upperback 2.22773 4.00904 0.461269
thorax 0.173319 2.03643 -2.21069
lowerneck -6.70126 -0.63967 4.40086
upperneck 0.514343 -1.25314 1.69089
head 1.26709 -0.58044 -0.251562
rclavicle -3.45885e-014 2.0276e-014
rhumerus -39.6824 15.486 -94.7021
rradius 56.5005
rwrist 10.474
rhand -13.2082 -19.4685
rfingers 7.12502
rthumb 12.8925 -769.05
lclavicle -3.45885e-014 2.0276e-014
lhumerus -40.6251 -21.7742 92.576
lradius 54.1015
lwrist 17.9307
lhand -19.3482 3.67479
lfingers 7.12502
lthumb 6.969 33.5401
rfemur -14.9426 0.288085 31.6711
rtibia 37.6376
rfoot -23.7675 0.531766
rtoes 17.6392
lfemur -42.097 11.9769 -9.98359
ltibia 38.0175
lfoot -7.36566 11.4064
ltoes 15.2441
385
root 5.65038 16.5331 -14.2868 9.08584 -23.7819 -7.56623
lowerback 4.11339 2.94793 4.60672
upperback 2.15341 4.0767 0.442757
thorax 0.20469 2.07081 -2.26574
lowerneck -6.5712 -0.596272 4.52406
upperneck 0.702741 -1.20257 1.68172
head 1.30501 -0.551274 -0.273746
rclavicle 8.16011e-014 -5.96354e-015
rhumerus -40.1141 15.6053 -94.7601
rradius 56.4492
rwrist 10.6144
rhand -13.3727 -19.5436
rfingers 7.12502
rthumb 12.7339 -769.135
lclavicle 8.16011e-014 -5.96354e-015
lhumerus -40.9009 -21.6589 92.572
lradius 53.9674
lwrist 18.1209
lhand -18.4698 4.07299
lfingers 7.12502
lthumb 7.81696 33.9085
rfemur -14.0624 0.114594 31.7526
rtibia 37.557
rfoot -23.9801 0.449365
rtoes 17.2885
lfemur -41.287 9.97001 -8.93306
ltibia 36.2228
lfoot -7.29467 12.7402
ltoes 15.1625
386
root 5.59659 16.523 -14.1321 8.97549 -24.1498 -7.6635
lowerback 3.94212 2.99947 4.63214
upperback 2.07462 4.13995 0.429186
thorax 0.226493 2.10224 -2.28787
lowerneck -6.44671 -0.555018 4.64014
upperneck 0.904044 -1.15525 1.6884
head 1.3482 -0.522975 -0.290023
rclavicle 9.73051e-014 4.37326e-015
rhumerus -40.5814 15.6538 -94.7836
rradius 56.4795
rwrist 10.7414
rhand -13.4822 -19.5288
rfingers 7.12502
rthumb 12.6284 -769.127
lclavicle 9.73051e-014 4.37326e-015
lhumerus -41.1939 -21.5758 92.6202
lradius 53.8331
lwrist 18.322
lhand -17.5791 4.43474
lfingers 7.12502
lthumb 8.67651 34.2364
rfemur -13.2678 -0.164862 31.8198
rtibia 37.6419
rfoot -24.1518 0.327519
rtoes 16.6823
lfemur -40.561 8.02731 -7.93625
ltibia 34.8933
lfoot -7.16091 13.6867
ltoes 14.6941
387
root 5.54207 16.5125 -13.9782 8.84568 -24.5194 -7.73059
lowerback 3.78121 3.05378 4.59908
upperback 1.99498 4.20556 0.415213
thorax 0.237577 2.13411 -2.27854
lowerneck -6.33001 -0.515902 4.75114
upperneck 1.11143 -1.11146 1.71265
head 1.39484 -0.495773 -0.300158
rclavicle 4.68138e-014 3.18055e-015
rhumerus -41.0722 15.6207 -94.7707
rradius 56.5852
rwrist 10.8276
rhand -13.5613 -19.4248
rfingers 7.12502
rthumb 12.5521 -769.028
lclavicle 4.68138e-014 3.18055e-015
lhumerus -41.4953 -21.524 92.7165
lradius 53.6998
lwrist 18.5223
lhand -16.7169 4.74672
lfingers 7.12502
lthumb 9.5085 34.5122
rfemur -12.5902 -0.552069 31.8572
rtibia 37.9421
rfoot -24.2588 0.175998
rtoes 15.7486
lfemur -39.9157 6.2294 -7.04617
ltibia 34.0143
lfoot -6.968 14.2119
ltoes 13.8247
